<?xml version="1.0" encoding="UTF-8"?>
<svg id="Layer_1" data-name="Layer 1" xmlns="http://www.w3.org/2000/svg" viewBox="0 0 950 200">
  <defs>
    <style>
      .cls-1 {
        letter-spacing: -.03em;
      }

      .cls-2 {
        letter-spacing: -.04em;
      }

      .cls-3 {
        letter-spacing: -.06em;
      }

      .cls-4 {
        fill: #ffa400;
      }

      .cls-5 {
        fill: #4169e1;
        font-family: NotoSerif, 'Noto Serif';
        font-size: 200.72px;
      }
    </style>
  </defs>
  <path class="cls-4" d="m242.31,173.19c-7,0-13.18-.68-18.53-2.04-5.35-1.36-9.83-3.26-13.44-5.69-3.61-2.43-6.32-5.39-8.14-8.86-1.82-3.47-2.73-7.28-2.73-11.44s1.35-7.27,4.04-9.73c2.69-2.46,6.53-3.7,11.5-3.7.21,4.15.89,8.14,2.05,11.97,1.16,3.83,2.89,7.2,5.2,10.12s5.25,5.26,8.82,7.01,7.87,2.63,12.91,2.63c9.66,0,17.2-2.16,22.62-6.47,5.42-4.31,8.14-10.53,8.14-18.64,0-3.63-.56-6.84-1.68-9.64-1.12-2.79-2.98-5.37-5.56-7.74-2.59-2.37-6-4.64-10.24-6.81-4.24-2.17-9.5-4.46-15.8-6.86-6.65-2.53-12.46-5.24-17.43-8.13-4.97-2.89-9.1-6.1-12.39-9.63-3.29-3.54-5.74-7.48-7.35-11.83-1.61-4.35-2.41-9.25-2.41-14.7s1.17-10.8,3.52-15.28c2.34-4.48,5.62-8.26,9.82-11.34,4.2-3.08,9.17-5.43,14.91-7.06,5.74-1.62,12-2.43,18.79-2.43,6.44,0,12.14.62,17.11,1.85,4.97,1.23,9.17,2.89,12.6,4.96,3.43,2.08,6.04,4.46,7.82,7.15,1.78,2.69,2.68,5.5,2.68,8.42,0,4.28-1.52,7.51-4.57,9.68-3.05,2.17-7.16,3.26-12.34,3.26,0-3.11-.4-6.18-1.21-9.2-.8-3.02-2.15-5.71-4.04-8.08-1.89-2.37-4.38-4.3-7.45-5.79-3.08-1.49-6.89-2.24-11.44-2.24-4.13,0-7.82.53-11.08,1.61-3.25,1.07-6,2.6-8.24,4.57-2.24,1.98-3.96,4.36-5.14,7.15-1.19,2.79-1.78,5.91-1.78,9.34,0,3.96.56,7.44,1.68,10.46,1.12,3.02,2.99,5.74,5.62,8.18s6.07,4.74,10.34,6.91c4.27,2.18,9.52,4.43,15.75,6.76,6.3,2.4,11.92,4.93,16.85,7.59,4.94,2.66,9.12,5.63,12.55,8.91,3.43,3.28,6.05,6.94,7.87,11,1.82,4.06,2.73,8.65,2.73,13.77,0,6.29-1.24,11.92-3.73,16.89-2.49,4.96-6.04,9.17-10.66,12.6-4.62,3.44-10.18,6.05-16.69,7.83-6.51,1.78-13.79,2.68-21.84,2.68Z"/>
  <path class="cls-4" d="m177.12,69.73c-3.14-8.83-7.71-16.26-13.7-22.28-5.99-6.04-13.31-10.63-22-13.78s-18.54-4.72-29.61-4.72H45.99v8.37h2.74c2.37,0,4.63.15,6.77.44,2.13.28,4,.92,5.61,1.89,1.61.97,2.9,2.35,3.84,4.13.94,1.79,1.42,4.13,1.42,7.06v97.71c0,3.12-.46,5.63-1.37,7.5-.5,1.04-1.7,2.81-3.77,4.33-1.32.96-2.58,1.5-4.6,2.36-1.17.5-1.51.57-3.9,1.48-2.35.89-3.48,1.37-4.12,1.62-3.98,1.52-12.31,2.76-18.71-1.69-.02-.02-.1-.07-.19-.14-1.37-.99-6.93-5.32-7.02-12.46-.08-5.85,3.55-10.72,7.8-13.32,3.14-1.9,6.15-2.27,6.85-2.35,8.11-.89,14.27,4.62,14.65,4.07.29-.41-3.09-3.71-8.01-5.34-4.08-1.36-7.5-.99-8.2-.9-.81.09-5.18.66-9.09,3.79-6.47,5.17-6.39,13.02-6.35,14.31.23,9.16,7.65,14.49,8.7,15.22,5.78,4.03,11.99,4.13,14,4.08,22.94.04,45.87.07,68.81.11,11.69,0,21.92-1.67,30.66-5.01,8.74-3.34,16.02-8.11,21.84-14.31,5.81-6.2,10.19-13.69,13.12-22.49,2.95-8.78,4.41-18.63,4.41-29.54s-1.58-21.33-4.73-30.16Zm-22.3,56.36c-2.15,7.59-5.35,13.98-9.62,19.16-4.27,5.2-9.6,9.14-16.01,11.83-6.4,2.7-13.87,4.05-22.41,4.05h-18.7v-17.17c2.63-5.2,6.88-12.24,13.68-19.44,6.42-6.8,12.35-10.81,13.73-11.72,8.4-5.59,16.78-8.74,23.55-10.56-8.31,1.86-25.15,6.85-39.16,20.88-5.48,5.49-9.23,11.06-11.79,15.76v-10.19c3.55-5.81,11.87-17.83,26-25.62,6.91-3.81,14.26-6.08,16.06-6.62,8.7-2.62,15.41-3.17,15.42-3.11.02.09-17.44.17-33.02,8.3-12.84,6.71-20.32,16.76-24.46,23.63V38.87h18.91c17.01,0,29.77,5.23,38.27,15.68,8.51,10.44,12.76,25.56,12.76,45.34,0,9.88-1.07,18.6-3.2,26.19Z"/>
  <text class="cls-5" transform="translate(339.96 171.19)"><tspan class="cls-2" x="0" y="0">T</tspan><tspan class="cls-3" x="115.97" y="0">r</tspan><tspan class="cls-1" x="199.51" y="0">avel</tspan></text>
</svg>